<?xml version="1.0" standalone="no"?>
<!DOCTYPE svg PUBLIC "-//W3C//DTD SVG 20010904//EN"
 "http://www.w3.org/TR/2001/REC-SVG-20010904/DTD/svg10.dtd">
<svg version="1.0" xmlns="http://www.w3.org/2000/svg"
 width="700.000000pt" height="700.000000pt" viewBox="0 0 700.000000 700.000000"
 preserveAspectRatio="xMidYMid meet">
<metadata>
Created by potrace 1.11, written by Peter Selinger 2001-2013
</metadata>
<g transform="translate(0.000000,700.000000) scale(0.100000,-0.100000)"
fill="#000000" stroke="none">
<path d="M3269 5826 c-2 -2 -36 -7 -74 -10 -505 -45 -989 -246 -1350 -560
-190 -166 -356 -366 -476 -571 -35 -59 -35 -61 -24 -115 15 -73 38 -115 92
-166 171 -164 452 -75 509 161 l7 30 10 -35 c24 -91 80 -162 158 -205 48 -26
64 -29 139 -30 103 0 161 23 226 92 40 41 82 127 85 171 1 9 5 -1 10 -23 14
-64 50 -124 96 -165 66 -58 107 -74 198 -76 68 -2 88 1 132 22 86 41 173 148
173 213 0 27 15 35 17 9 6 -72 104 -192 183 -224 22 -9 41 -21 41 -28 4 -36 3
-1426 -1 -1427 -3 -1 -289 -2 -636 -3 l-631 -1 -38 -29 c-20 -16 -43 -44 -51
-62 -18 -42 -18 -120 -1 -126 6 -2 123 -4 260 -3 l247 1 1 -26 c0 -14 1 -350
1 -747 1 -515 4 -723 12 -724 13 -1 115 -1 136 0 13 1 15 88 15 733 -1 403 1
740 3 748 3 14 44 16 345 15 l342 0 1 -660 c0 -363 -2 -665 -4 -672 -3 -9 -58
-12 -208 -11 -219 0 -238 -4 -265 -53 -16 -30 -19 -97 -5 -101 6 -2 261 -3
566 -3 l555 1 -2 50 c-2 67 -41 104 -111 104 -26 1 -120 1 -209 1 -90 1 -163
4 -164 7 -1 4 -2 305 -3 670 -1 435 2 663 9 663 37 6 681 4 685 -2 3 -4 5
-341 4 -748 l0 -741 20 -1 c25 -2 116 -2 132 0 8 1 11 216 10 746 -1 410 1
746 4 746 3 1 118 2 255 3 l250 2 3 34 c8 82 -37 161 -101 176 -18 4 -308 8
-645 8 -450 1 -615 4 -620 13 -5 8 -8 1369 -3 1418 1 6 23 20 49 32 81 37 143
114 177 218 5 16 10 9 24 -32 33 -96 97 -162 193 -198 64 -24 167 -17 232 16
78 39 163 149 169 219 2 24 17 15 17 -11 0 -63 86 -170 168 -211 66 -33 198
-33 259 0 91 48 145 116 170 212 6 25 12 37 12 28 4 -77 89 -196 168 -236 116
-59 256 -36 351 56 55 54 80 102 91 172 8 49 7 51 -54 149 -186 297 -444 557
-726 732 -287 178 -649 306 -978 345 -20 2 -52 7 -71 10 -40 7 -555 16 -561
10z"/>
</g>
</svg>
